<svg version="1.2" xmlns="http://www.w3.org/2000/svg" viewBox="0 0 1504 284" width="512" height="97"><style>.a{fill:none;stroke:#000;paint-order:stroke fill markers;stroke-miterlimit:100;stroke-width:30}</style><path fill-rule="evenodd" class="a" d="m22 22h180v60h-120v120h60v-60h60v120h-180zm200 0h180v240h-180zm60 180h60v-120h-60zm141-180h180v180h-60v60h-120zm199 0h180v240h-180zm60 180h60v-120h-60zm140-180h180v60h-60v180h-60v-180h-60zm280 0h60v180h60v-180h60v240h-180zm200 0h60v60h60v-60h60v60h-60v60h60v120h-60v-120h-60v120h-60zm-819 180h60v-120h-60z"/></svg>