<svg version="1.2" xmlns="http://www.w3.org/2000/svg" viewBox="0 0 513 84" width="513" height="84"><style>.a{fill:none;stroke:#000;stroke-miterlimit:100;stroke-width:5}</style><path fill-rule="evenodd" class="a" d="m0.7 0h63.1v21h-42.1v42.1h21.1v-21h21v42.1h-63.1zm70.1 0h63.2v84.1h-63.2zm21.1 63.2h21v-42.1h-21zm49.4-63.2h63.1v63.2h-21v21h-42.1zm69.8 0h63.1v84.2h-63.1zm21.1 63.1h21v-42.1h-21zm49-63.1h63.2v21h-21.1v63.2h-21v-63.2h-21.1zm98.2 0h21.1v63.2h21v-63.2h21.1v84.2h-63.2zm70.2 0h21v21h21.1v-21h21v21h-21v21.1h21v42.1h-21v-42.1h-21.1v42.1h-21zm-287.2 63.1h21v-42.1h-21z"/></svg>